<svg xmlns="http://www.w3.org/2000/svg" width="511.997" height="450.268" viewBox="0 0 511.997 450.268">
  <path id="comments" d="M217.91,393.59c53.26,49.01,127.33,63.27,201.39,31.71l63.49,24.97-9.94-59.73c59.07-51.65,45.36-123.42-1.79-173.93a186.23,186.23,0,0,1-19.94,55.27c-14.17,25.77-34.46,48.67-59.31,67.52a262.869,262.869,0,0,1-82.8,41.87,296.37,296.37,0,0,1-91.1,12.32ZM132.03,226.37a13.95,13.95,0,0,1,0-27.9H256.15a13.95,13.95,0,0,1,0,27.9Zm0-71.41a13.95,13.95,0,0,1,0-27.9H309.38a13.95,13.95,0,0,1,0,27.9ZM226.13.12l.21.01C286.67,1.95,340.79,23.4,379.53,56.62c39.57,33.92,63.3,80.1,61.82,130.51l-.01.23c-1.56,50.44-28.05,95.17-69.62,126.71-40.74,30.92-96.12,49.16-156.44,47.39a279.05,279.05,0,0,1-44.79-4.82,225.748,225.748,0,0,1-36-10.05L28.17,379.06l31.85-75.75c-18.2-15.99-32.94-34.6-43.24-55.01A153.1,153.1,0,0,1,.07,174.33C1.59,123.84,28.09,79.07,69.68,47.51,110.44,16.59,165.81-1.65,226.13.12Zm-.55,27.7-.21-.01C171.49,26.23,122.33,42.3,86.41,69.55c-35.07,26.61-57.39,63.9-58.65,105.54a125.659,125.659,0,0,0,13.78,60.72c10.01,19.82,25.02,37.7,43.79,52.58l8.26,6.54L76.6,335.32l59.12-18.06,4.5,1.81a194.226,194.226,0,0,0,35.48,10.31,249.766,249.766,0,0,0,40.34,4.39c53.88,1.58,103.04-14.49,138.96-41.74,35.07-26.61,57.39-63.9,58.65-105.54v-.22c1.19-41.57-18.82-80.01-52.15-108.59-34.18-29.3-82.19-48.24-135.92-49.86Z" transform="translate(-0.001 -0.002)" fill="#355bac" fill-rule="evenodd"/>
</svg>
