<svg xmlns="http://www.w3.org/2000/svg" width="480" height="512.473" viewBox="0 0 480 512.473">
  <path id="concept" d="M296.38,168.27l11.6,11.53h.09c4.91,4.96,5.22,13.22-.09,17.99l-6.81,6.9c.07.23.23.46.3.69a61.936,61.936,0,0,1,3.18,8.42l.15.53h8.36a12.931,12.931,0,0,1,12.82,12.82v16.52a12.635,12.635,0,0,1-12.82,12.8h-9.7a68.258,68.258,0,0,1-4.23,9.34l5.91,5.83.23.23c4.9,4.9,4.54,13.02,0,17.98l-.16.16L293.6,301.54a12.629,12.629,0,0,1-18.21,0l-6.74-6.83a78.695,78.695,0,0,1-9.72,3.59v8.28A12.926,12.926,0,0,1,246.1,319.4H229.59a12.649,12.649,0,0,1-12.81-12.82v-9.7a95.423,95.423,0,0,1-9.33-4.25l-5.82,5.9-.23.23c-4.94,4.89-13.01,4.57-18,0l-.15-.15-11.6-11.76a12.5,12.5,0,0,1,.08-18.06l6.81-6.75a2.475,2.475,0,0,1-.31-.76,68.085,68.085,0,0,1-3.12-8.34l-.15-.62h-8.18a12.878,12.878,0,0,1-12.8-12.87V222.93a12.674,12.674,0,0,1,12.84-12.82h9.68a86.662,86.662,0,0,1,4.23-9.35l-5.82-5.89a12.808,12.808,0,0,1,0-18.23l11.52-11.6v-.07c4.9-4.94,13.26-5.2,17.99.07l6.89,6.83a4.863,4.863,0,0,0,.61-.31,69.168,69.168,0,0,1,8.36-3.19,1.957,1.957,0,0,1,.6-.15v-8.27a12.926,12.926,0,0,1,12.83-12.82h16.51a12.629,12.629,0,0,1,12.83,12.82v9.7c.23.07.53.23.77.3a74.277,74.277,0,0,1,8.11,3.72l.46.23,5.9-5.83c5.54-5.54,13.12-4.69,18.09.2ZM16.94,257.66a16.681,16.681,0,0,1-.82-33.35l35.76-1.23a16.673,16.673,0,0,1,12.69,28.09,16.77,16.77,0,0,1-11.63,5.25c-11.84,0-24.1,1.01-36,1.24ZM187.98,427.04A9.326,9.326,0,0,1,186,408.56c-5.33-30.26-19.91-46.93-35.31-64.54-11.98-13.72-24.43-27.97-34.24-48.95-9.64-20.65-14.94-42-14.78-64.17.21-22.17,5.83-45,18.07-68.61.08-.17.16-.29.24-.45,16.06-27.18,38.52-45.33,63.52-55.51a140.721,140.721,0,0,1,66.1-9.45,152.351,152.351,0,0,1,63.11,20.29c24.23,14.32,44.14,35.6,55.1,62.45a138.3,138.3,0,0,1,10.44,48.53c.49,17.69-2.55,36.79-10.72,56.99-10.92,27.05-25.38,43.85-38.88,59.57-12.44,14.5-24.03,27.96-30.47,48.62a9.323,9.323,0,0,1-.86,18.31l-3.16.45q-.87,6.72-1.12,14.41l1.03-.16a9.323,9.323,0,0,1,2.55,18.47l-3.2.46a94.666,94.666,0,0,1,.24,12.27l.53-.08a9.351,9.351,0,1,1,2.3,18.56l-6.89.86c-15.75,40.81-70.36,49.78-92.59,9.77a9.361,9.361,0,0,1-5.05-7.18,9.13,9.13,0,0,1,.29-3.66,84.29,84.29,0,0,1-3.57-15.72l-.29.04a9.328,9.328,0,0,1-2.55-18.48l2.22-.32c.16-5.01.12-9.78-.08-14.29Zm15.39-20.99,75.92-10.79c6.53-27.51,20.73-44.06,36.13-61.92,12.65-14.7,26.12-30.38,35.97-54.77,7.23-17.86,9.9-34.61,9.49-50.05a120.075,120.075,0,0,0-9.2-42.46c-9.45-23.11-26.73-41.51-47.83-53.99a133.61,133.61,0,0,0-55.81-17.94,123.672,123.672,0,0,0-58.01,8.29c-21.59,8.83-41.01,24.52-54.98,48.12-10.84,21.02-15.85,41.15-16.01,60.48-.16,19.46,4.56,38.31,13.14,56.66,8.74,18.73,20.4,32.03,31.57,44.84C184.38,356.16,198.07,373.97,203.37,406.05Zm72.84,8.5L205.3,424.61c.21,4.52.29,9.24.21,14.25l70-9.94c.08-5.04.29-9.85.7-14.37Zm-70.33,43.11a68.127,68.127,0,0,0,2.17,10.44L276,459.72a61.272,61.272,0,0,0,.17-12.03l-70.29,9.97Zm11.82,28.09c14.95,15.65,39.07,10.46,50.88-6.28Zm243.91-279.4a16.692,16.692,0,0,1,3.4,33.21l-35.56,3.73a16.687,16.687,0,0,1-3.4-33.2l35.56-3.74ZM391.03,64.23a16.636,16.636,0,0,1,10.61-7.1l.41-.08a16.664,16.664,0,0,1,16.68,25.72L398.86,112.5a16.7,16.7,0,0,1-30.23-6.02l-.07-.42a16.618,16.618,0,0,1,2.6-12.09ZM236.62,16.26a16.66,16.66,0,1,1,33.31.78l-.91,35.54a5.58,5.58,0,0,1-.06,1.23,16.615,16.615,0,0,1-16.78,15.22,5.459,5.459,0,0,1-1.22-.06,16.618,16.618,0,0,1-15.24-16.98l.9-35.73ZM59.52,77.62A16.7,16.7,0,0,1,82.26,53.17l26.15,24.39A16.688,16.688,0,0,1,85.68,102ZM247.27,196.96a36.909,36.909,0,0,1,26.66,21.88c.08.16.08.29.16.38a34.6,34.6,0,0,1,2.04,6.66,36.64,36.64,0,0,1,0,14.86,37.076,37.076,0,0,1-21.89,26.75c-.16.08-.31.08-.37.14a37,37,0,0,1-48.2-19.84c-.08-.15-.08-.3-.16-.38a37.106,37.106,0,0,1-2.02-21.53A37.485,37.485,0,0,1,219,202.55a36.81,36.81,0,0,1,13.34-5.59,36.282,36.282,0,0,1,14.93,0Z" transform="translate(0.002 -0.004)" fill="#355bac" fill-rule="evenodd"/>
</svg>
