<svg id="product-delivery" xmlns="http://www.w3.org/2000/svg" width="122.882" height="94.448" viewBox="0 0 122.882 94.448">
  <path id="Path_1507" data-name="Path 1507" d="M0,41.16H24.83V85.34H0V41.16Zm36-29.4L71.01.1a1.88,1.88,0,0,1,1.24.01V.1l35.47,12.15a1.953,1.953,0,0,1,1.32,2.02.615.615,0,0,1,.01.14V51.45l1.56-.77c9.6-3.16,16.43,6.88,9.35,13.87A251.411,251.411,0,0,1,77.23,89.7c-10.59,6.44-21.18,6.22-31.76,0L29.84,81.63V44.71h4.48V13.7A1.937,1.937,0,0,1,36,11.76ZM46.44,44.71c7.04,1.26,14.08,5.08,21.12,9.51h1.47V33.88L38.97,21.05V44.71Zm27.99,9.51h6.04c5.84.35,8.9,6.27,3.22,10.16a16.49,16.49,0,0,1-9.26,2.86v4.89c6.4-.36,11.67-2.13,15.06-7.43l1.93-4.51,12.97-6.43V20.78L74.43,33.9V54.22Zm-5.39,12.9c-.65-.05-1.31-.1-1.96-.16-4.22-.21-4.4,5.46,0,5.48a11.711,11.711,0,0,0,1.96-.04V67.12ZM71.6,5.49,41.78,15.43,71.74,29.02l29.97-13.21L71.6,5.49Z" fill="#355bac" fill-rule="evenodd"/>
</svg>
