<svg xmlns="http://www.w3.org/2000/svg" width="512" height="488.15" viewBox="0 0 512 488.15">
  <path id="search-company" d="M304.73,467.72H175.81V16.29h248.2v238.4a136.139,136.139,0,0,1,16.29,2.56V14.31A14.357,14.357,0,0,0,426,0H173.83a14.353,14.353,0,0,0-14.31,14.31V136.25H11.98A12.048,12.048,0,0,0,0,148.24V475.86a8.145,8.145,0,0,0,8.15,8.15l310.99-.07-2.1-2.05a134.983,134.983,0,0,1-12.31-14.17ZM411.39,286.93A100.61,100.61,0,1,1,310.78,387.54,100.63,100.63,0,0,1,411.39,286.93Zm7.04,46.16a46.647,46.647,0,0,0-40.41,69.93l-19.43,21.5a3.38,3.38,0,0,0,.21,4.77l12.92,11.8a3.35,3.35,0,0,0,4.76-.21l18.6-20.77a46.725,46.725,0,0,0,9.85,4.29l.11.02a46.629,46.629,0,0,0,56.5-62.48,47.054,47.054,0,0,0-10.13-15.17,46.495,46.495,0,0,0-32.98-13.68Zm-20.6,26.04a29.358,29.358,0,0,1,9.48-6.33l.17-.07a28.868,28.868,0,0,1,10.95-2.12,29.14,29.14,0,1,1,0,58.28,28.99,28.99,0,0,1-20.6-8.54,29.176,29.176,0,0,1-6.34-31.74l.07-.17a29.444,29.444,0,0,1,6.27-9.31ZM16.29,467.72V152.54H159.52V467.72H16.29Zm332.62-198.1H319.72l-.12.01h-.02l-.12.02h-.02l-.12.02h-.01l-.12.04h-.02l-.11.03h-.02l-.11.05h-.02l-.11.05h-.02a3.019,3.019,0,0,0-1.7,2.57v20.75a133.964,133.964,0,0,1,31.83-23.54Zm-30.13-93.41a3.019,3.019,0,0,0-1.7,2.57v45.26a3.022,3.022,0,0,0,1.7,2.58h.02l.11.05h.02l.11.04h.02l.11.03h.02l.12.04h.01l.12.02h.02l.12.02h.02l.12.01h.02l.12.01h53.6a2.808,2.808,0,0,0,2.8-2.8V209.11l.02-.03v-30.3a2.8,2.8,0,0,0-1.86-2.62l-.11-.04h-.02l-.11-.04h-.02l-.11-.03h-.02l-.12-.03h-.02l-.12-.02h-.16l-.12-.01H319.86l-.12.01h-.16l-.12.02h-.02l-.12.03h-.01l-.12.03h-.02l-.11.04h-.02l-.11.04h-.02l-.11.05h-.02ZM277.91,363.25h-53.6a3.111,3.111,0,0,0-2.78,2.79V411.3a2.944,2.944,0,0,0,2.78,2.8h53.6a2.794,2.794,0,0,0,2.41-1.38,134.669,134.669,0,0,1-.35-48.4A3.067,3.067,0,0,0,277.91,363.25Zm0-93.63h-53.6a3.111,3.111,0,0,0-2.78,2.79v45.26a2.935,2.935,0,0,0,2.78,2.79h53.6a2.793,2.793,0,0,0,2.8-2.79V272.41A3.114,3.114,0,0,0,277.91,269.62Zm0-93.63h-53.6a3.12,3.12,0,0,0-2.78,2.79v45.26a2.944,2.944,0,0,0,2.78,2.8h53.6a2.808,2.808,0,0,0,2.8-2.8V178.78A3.124,3.124,0,0,0,277.91,175.99ZM120.05,321.17H55.48c-.71,0-1.36.55-1.36.99v26.53c0,.44.68.99,1.36.99h64.57c.69,0,1.37-.44,1.37-.99V322.16C121.42,321.62,120.74,321.17,120.05,321.17ZM387.55,51.73H212.26a6.591,6.591,0,0,0-6.51,6.52v69.26a6.6,6.6,0,0,0,6.51,6.52H387.55a6.567,6.567,0,0,0,6.52-6.52V58.25a6.573,6.573,0,0,0-6.52-6.52ZM120.05,263.12H55.48c-.71,0-1.36.55-1.36.99v26.53c0,.44.68.99,1.36.99h64.57c.69,0,1.37-.45,1.37-.99V264.11c0-.55-.68-.99-1.37-.99Zm0-58.05H55.48c-.71,0-1.36.54-1.36.98v26.54c0,.44.68.98,1.36.98h64.57c.69,0,1.37-.44,1.37-.98V206.05c0-.54-.68-.98-1.37-.98Z" fill="#355bac" fill-rule="evenodd"/>
</svg>
