<svg xmlns="http://www.w3.org/2000/svg" width="511.999" height="500.538" viewBox="0 0 511.999 500.538">
  <path id="virtual-reality-game" d="M267.75,364.3a7.737,7.737,0,0,0-.01-1.18,222.229,222.229,0,0,0,32.86-1.3c13.62-1.55,25.88-4.66,35.05-9.4,7.03-3.64,12.4-8.31,15.43-14.03,3.22-6.11,3.75-13.09.85-20.91-1.95-5.28-5.54-10.96-10.98-17.03q-.51-5.745-1.46-11.69c-1.39-8.58-3.95-19.61-6.18-28.05-1.01-3.81-2.08-7.58-3.17-11.39l-.45-1.58,12.03-4.38a17.6,17.6,0,0,0,12.14-13.81,19.592,19.592,0,0,0-.77-9.3,29.342,29.342,0,0,0-9.12-13.01l-14.86-16.09a19.058,19.058,0,0,0,1.69-15.44l-16.42-54.82a18.46,18.46,0,0,0-8.97-10.99,18.918,18.918,0,0,0-6.06-2.02l9.62-8.14a6.19,6.19,0,0,0,.73-8.71l-1-.94c-83.24-62.89-156.74-65.07-209.95-37C67.66,69.5,43.59,96.27,28.62,127.28,14.08,157.42,8.08,191.64,12.5,224.34A26.132,26.132,0,0,0,.95,253.56l.28.96a26.222,26.222,0,0,0,26.44,18.07c18.24,34.98,52.11,63.95,104.64,77.85q-.36,5.13-.98,10.12a188.6,188.6,0,0,1-10.72,43.85,6.18,6.18,0,0,0,11.57,4.35,201.492,201.492,0,0,0,11.44-46.7,234.815,234.815,0,0,0,.25-52.56,6.177,6.177,0,1,0-12.29,1.25,234.742,234.742,0,0,1,1.25,27.06c-45.79-12.76-75.87-37.91-92.69-68.26l97.29-29.12a47.673,47.673,0,0,0,57.83,28.11l21.79-6.53q15.165-4.545,30.32-9.07l41.61-12.46c9.11-2.72,11.76-10.12,14.56-17.96,1.45-4.06,2.98-8.32,5.48-10.9,1.76-1.81,4.03-3.76,6.33-5.74,1.95-1.67,3.93-3.38,5.81-5.15l14.51,15.67a17.446,17.446,0,0,1,5.67,7.62c1.12,3.51.04,6.41-3.49,7.62-10.44,3.41-21.59,7.85-32.02,11.65l4.21,11.61,8-2.92.2.73c2.05,7.2,4.06,14.24,5.64,21.61a34.23,34.23,0,0,1-9.68,6.28,24.2,24.2,0,0,1-12.36,1.64,6.186,6.186,0,0,0-1.5,12.28,36.186,36.186,0,0,0,18.55-2.5,43.366,43.366,0,0,0,7.9-4.32l.51,2.98c.68,4.16,1.17,8.45,1.49,12.84a6.193,6.193,0,0,0,1.87,3.98c4.99,5.32,8.13,10.06,9.67,14.23,1.58,4.28,1.39,7.92-.18,10.9-1.78,3.36-5.33,6.32-10.17,8.81-7.77,4.02-18.55,6.72-30.73,8.1a203.5,203.5,0,0,1-37.79.84c-10.37-.82-20.27-2.66-28.31-5.9-7.83-3.15-13.28-10.65-17.92-17.04l-3.62-4.9c-5.79-7.78-15.86-21.33-24.76-24.73a6.187,6.187,0,1,0-4.39,11.57c5.56,2.12,14.24,13.81,19.23,20.51l3.53,4.8c5.61,7.71,12.18,16.75,23.34,21.25a103.793,103.793,0,0,0,27.04,6.3,6.359,6.359,0,0,0-.18,1.09c-.46,5.82-.79,17.33-.47,27.96.24,7.92.86,15.4,2.05,19.87a6.179,6.179,0,1,0,11.94-3.19c-.94-3.55-1.45-10.03-1.66-17.02-.3-9.99.02-21.01.47-26.65Zm234.69-25.77V13.72c-22.13,14.07-48.35,24.11-76.6,30.73v246.3l.04.02A196.227,196.227,0,0,1,502.44,338.53Zm-27.88,48.3h-.26a5.622,5.622,0,0,1-4.78-2.72,18.516,18.516,0,0,0-6.44-6.4,22.989,22.989,0,0,0-22.78,0,18.608,18.608,0,0,0-6.25,6.08,5.574,5.574,0,0,1-4.97,3.04H382.14a5.635,5.635,0,0,1-4.78-2.72,18.518,18.518,0,0,0-6.4-6.38,22.29,22.29,0,0,0-11.41-3.07,22.68,22.68,0,0,0-11.42,3.06,18.64,18.64,0,0,0-6.26,6.08,5.567,5.567,0,0,1-5.22,3.03c-16.06,18.06-24.4,55.3-22.42,80.64.51,6.62,1.74,12.3,3.71,16.35,1.51,3.1,3.38,5.08,5.58,5.49,2.81.51,6.58-.86,11.44-4.67,5.57-4.37,13.69-12.77,18.49-18.03a69.464,69.464,0,0,0,6.54-8.19,5.585,5.585,0,0,1,4.91-2.93h81.4a5.607,5.607,0,0,1,4.65,2.51,65.843,65.843,0,0,0,5.26,6.85c4.78,5.5,14.59,15.64,20.47,20.12,4.65,3.56,8.29,4.84,11,4.35,2.21-.41,4.08-2.4,5.59-5.49,1.97-4.06,3.2-9.73,3.71-16.36,1.97-25.34-6.36-62.58-22.42-80.64ZM454.14,427.8a7.75,7.75,0,1,1-10.96,0A7.744,7.744,0,0,1,454.14,427.8Zm-17.25-15.48a7.757,7.757,0,1,1-10.97,0A7.756,7.756,0,0,1,436.89,412.32Zm34.51,0a7.744,7.744,0,1,1-5.48-2.272,7.756,7.756,0,0,1,5.48,2.272Zm-17.26-13.81a7.753,7.753,0,1,1-10.96,0A7.756,7.756,0,0,1,454.14,398.51Zm-105.59,1.38h13.47v13.75h13.75v13.47H362.02v13.75H348.55V427.11H334.8V413.64h13.75Zm47.34-24.22c-.7-24.53,6.64-30.79,17.35-31.51a52.64,52.64,0,0,1,11.92,1.07c7.32,1.22,15.42,2.55,20.92-2.95a5.583,5.583,0,1,1,7.89,7.9c-9.53,9.54-20.6,7.71-30.6,6.05a45.208,45.208,0,0,0-9.39-.95c-4.5.3-7.53,4.33-6.95,20.39h19.11a29.715,29.715,0,0,1,8.44-7.52,33.93,33.93,0,0,1,34.22,0,29.966,29.966,0,0,1,8.43,7.52,5.589,5.589,0,0,1,4.01,2.01c19.06,19.68,29.07,62.18,26.86,90.62-.62,7.96-2.2,15.01-4.8,20.37-3.07,6.31-7.58,10.49-13.61,11.6-5.2.95-11.27-.6-18.15-5.36-6.67-4.62-17.42-15.63-22.95-21.84-1.79-2.02-3.55-4.15-5.2-6.42H367.8a81.231,81.231,0,0,1-5.51,6.78c-5.23,5.85-14.92,15.79-21.17,20.44-7.49,5.57-14.04,7.42-19.61,6.39-6.03-1.11-10.53-5.29-13.6-11.6-2.6-5.35-4.18-12.4-4.8-20.37-2.23-28.59,7.92-71.41,27.17-90.94a5.584,5.584,0,0,1,3.68-1.66,29.6,29.6,0,0,1,8.45-7.52,33.864,33.864,0,0,1,34.27.01,29.726,29.726,0,0,1,8.4,7.49h10.81ZM373.48,111.74H331.34a38.651,38.651,0,0,1,1.32,3.7l16.42,54.82a38.566,38.566,0,0,1,1.44,15.42l-.05.5,7,7.58a52.537,52.537,0,0,1,7.77,8.71,44.162,44.162,0,0,1,2.69,4.33h5.55a3.6,3.6,0,0,0,3.39-3.73v-87.6A3.58,3.58,0,0,0,373.48,111.74ZM480.44,61.58l-27.98,21.1c-1.99,1.5-4.47,2.25-4.47,4.91V228.63c0,2.66,2.54,3.34,4.47,4.91l27.98,22.61c1.93,1.55,4.47-2.21,4.47-4.92V66.49c0-2.7-2.49-6.4-4.47-4.91ZM372.75,232.15h19.28a8.455,8.455,0,0,0,5.97-2.52,9.135,9.135,0,0,0,2.7-6.52V96.55a8.882,8.882,0,0,0-8.67-9.03H329.09a25.3,25.3,0,0,1,1.14,8.26h61.8c.43,0,1.15.27,1.15.77V223.11a.6.6,0,0,1-.19.4,1.3,1.3,0,0,1-.96.39H373.1A36.781,36.781,0,0,1,372.75,232.15Zm43.53-185.6c-7.98,1.63-16.11,3-24.33,4.12-34.02,4.66-69.77,5.12-104.1,2.32q-10.9-6.525-21.59-11.78c40.26,5.04,83.61,5.62,124.42.02,42.95-5.88,83.02-18.6,113.5-40.14A4.78,4.78,0,0,1,512,4.78v345.7a4.918,4.918,0,0,1-1.61,3.54,4.757,4.757,0,0,1-6.71-.37c-22.31-24.92-49.98-43.62-80.79-53.86a173.872,173.872,0,0,0-63.79-8.66l-.81-5.36c-.23-1.41-.46-2.77-.71-4.08a183.725,183.725,0,0,1,58.7,6.17V46.55ZM223.35,220.59a7.8,7.8,0,1,0,9.71,5.24A7.82,7.82,0,0,0,223.35,220.59ZM258.76,210a7.782,7.782,0,1,0,5.935.6,7.777,7.777,0,0,0-5.935-.6Zm48.56-13.5c-2.51,2.15-4.97,4.27-7.15,6.51-4.42,4.55-6.39,10.07-8.28,15.35-1.72,4.81-3.35,9.36-6.44,10.28L244.49,240.9c-5,1.5-13.79,4.64-19.62,5.38a35.334,35.334,0,0,1-38.08-24.7l-17.17-57.34a6.233,6.233,0,0,1,.5-4.71c1.44-2.66,3.69-3,6.22-3.76l101.82-30.48,12.83-3.84,3.86-1.16a6.223,6.223,0,0,1,7.69,4.13l15.68,52.38.74,2.44c1.89,6.32-7.1,13.33-11.64,17.26Zm-184.99-5.93L24.42,219.88c-3.4-29.47,2.24-60.12,15.32-87.23,13.88-28.74,36.1-53.5,64.77-68.63,48-25.32,114.4-23.64,190.52,31.34l-20.81,17.67a6.034,6.034,0,0,0-.55.7l-99.88,29.91q-4.725,1.41-9.46,2.83l-32.9,9.85a18.578,18.578,0,0,0-12.45,23.06l3.35,11.19Zm20.23,24.48-6.61-22.1-.11-.35-5.02-16.75a6.213,6.213,0,0,1,4.14-7.69l22.08-6.61a18.484,18.484,0,0,0,.74,6.22l17.28,57.71a47.381,47.381,0,0,0,22.87,27.71c.67.36,1.35.71,2.04,1.04l-8.24,2.46a35.1,35.1,0,0,1-26.75-2.77c-15.55-8.38-17.89-23.74-22.42-38.87ZM125.87,202.4l7.86,26.24L34.61,258.32c-23.08,6.34-28.35-17.23-13.34-24.25a30.815,30.815,0,0,1,5.12-1.88l99.48-29.79Z" transform="translate(-0.001 0.001)" fill="#355bac"/>
</svg>
